<svg width="41" height="40" viewBox="0 0 41 40" fill="none" xmlns="http://www.w3.org/2000/svg">
<path fill-rule="evenodd" clip-rule="evenodd" d="M20.5 40C31.8218 40 41 31.0457 41 20C41 8.9543 31.8218 0 20.5 0C9.17816 0 0 8.9543 0 20C0 31.0457 9.17816 40 20.5 40Z" fill="#262626"/>
<path fill-rule="evenodd" clip-rule="evenodd" d="M21 11.5C23.3085 11.5 23.5979 11.5098 24.5045 11.5512C25.4093 11.5924 26.0272 11.7361 26.5678 11.9463C27.1268 12.1634 27.6008 12.4541 28.0734 12.9266C28.5459 13.3992 28.8366 13.8732 29.0538 14.4322C29.2639 14.9728 29.4076 15.5907 29.4488 16.4955C29.4902 17.4021 29.5 17.6915 29.5 20C29.5 22.3085 29.4902 22.5979 29.4488 23.5045C29.4076 24.4093 29.2639 25.0272 29.0538 25.5678C28.8366 26.1268 28.5459 26.6008 28.0734 27.0734C27.6008 27.5459 27.1268 27.8366 26.5678 28.0538C26.0272 28.2639 25.4093 28.4076 24.5045 28.4488C23.5979 28.4902 23.3085 28.5 21 28.5C18.6915 28.5 18.4021 28.4902 17.4955 28.4488C16.5907 28.4076 15.9728 28.2639 15.4322 28.0538C14.8732 27.8366 14.3992 27.5459 13.9266 27.0734C13.4541 26.6008 13.1634 26.1268 12.9463 25.5678C12.7361 25.0272 12.5924 24.4093 12.5512 23.5045C12.5098 22.5979 12.5 22.3085 12.5 20C12.5 17.6915 12.5098 17.4021 12.5512 16.4955C12.5924 15.5907 12.7361 14.9728 12.9463 14.4322C13.1634 13.8732 13.4541 13.3992 13.9266 12.9266C14.3992 12.4541 14.8732 12.1634 15.4322 11.9463C15.9728 11.7361 16.5907 11.5924 17.4955 11.5512C18.4021 11.5098 18.6915 11.5 21 11.5ZM20.9973 22.8298C22.5616 22.8298 23.8298 21.5616 23.8298 19.9973C23.8298 18.433 22.5616 17.1649 20.9973 17.1649C19.433 17.1649 18.1649 18.433 18.1649 19.9973C18.1649 21.5616 19.433 22.8298 20.9973 22.8298ZM20.9973 15.6338C23.4072 15.6338 25.3608 17.5874 25.3608 19.9973C25.3608 22.4072 23.4072 24.3608 20.9973 24.3608C18.5874 24.3608 16.6338 22.4072 16.6338 19.9973C16.6338 17.5874 18.5874 15.6338 20.9973 15.6338ZM26.8556 15.3722C26.8556 15.946 26.3904 16.4111 25.8166 16.4111C25.2429 16.4111 24.7778 15.946 24.7778 15.3722C24.7778 14.7985 25.2429 14.3333 25.8166 14.3333C26.3904 14.3333 26.8556 14.7985 26.8556 15.3722Z" fill="white"/>
</svg>
