<svg width="37" height="36" viewBox="0 0 37 36" fill="none" xmlns="http://www.w3.org/2000/svg">
<path fill-rule="evenodd" clip-rule="evenodd" d="M17.6048 36C27.3276 36 35.2096 27.9411 35.2096 18C35.2096 8.05887 27.3276 0 17.6048 0C7.88193 0 0 8.05887 0 18C0 27.9411 7.88193 36 17.6048 36Z" fill="white"/>
<mask id="mask0" mask-type="alpha" maskUnits="userSpaceOnUse" x="0" y="0" width="37" height="36">
<path fill-rule="evenodd" clip-rule="evenodd" d="M18.0368 36C27.9983 36 36.0736 27.9411 36.0736 18C36.0736 8.05887 27.9983 0 18.0368 0C8.07535 0 0 8.05887 0 18C0 27.9411 8.07535 36 18.0368 36Z" fill="white"/>
</mask>
<g mask="url(#mask0)">
<path d="M1.69514 24.4182C2.26163 24.4182 2.76639 24.3222 3.20942 24.1301C3.6597 23.9381 4.03736 23.6684 4.3424 23.3213C4.64743 22.9741 4.87984 22.553 5.03962 22.0581C5.20666 21.5631 5.29018 21.0091 5.29018 20.3959V10.8H8.22069V20.3959C8.22069 21.3489 8.06817 22.2316 7.76314 23.0442C7.46537 23.8494 7.03324 24.5475 6.46675 25.1385C5.90752 25.7221 5.22482 26.1801 4.41866 26.5125C3.6125 26.8375 2.70466 27 1.69514 27C0.678359 27 -0.233113 26.8375 -1.03928 26.5125C-1.84544 26.1801 -2.53176 25.7221 -3.09826 25.1385C-3.65749 24.5475 -4.08962 23.8494 -4.39465 23.0442C-4.69242 22.2316 -4.84131 21.3489 -4.84131 20.3959V10.8H-1.9108V20.3849C-1.9108 20.998 -1.83091 21.552 -1.67113 22.047C-1.50409 22.5419 -1.26805 22.9667 -0.963016 23.3213C-0.650719 23.6684 -0.273057 23.9381 0.169969 24.1301C0.620258 24.3222 1.12865 24.4182 1.69514 24.4182Z" fill="#4592FF"/>
<path d="M24.8055 10.8V26.8228H23.3021C23.0697 26.8228 22.8736 26.7858 22.7138 26.712C22.5613 26.6307 22.4124 26.4977 22.2671 26.313L14.0421 15.6312C14.0857 16.1188 14.1075 16.5694 14.1075 16.9831V26.8228H11.5256V10.8H13.0616C13.1851 10.8 13.2904 10.8074 13.3776 10.8222C13.472 10.8296 13.5519 10.8518 13.6172 10.8887C13.6899 10.9182 13.7589 10.9663 13.8242 11.0327C13.8896 11.0918 13.9622 11.1731 14.0421 11.2765L22.2998 22.0026C22.278 21.7441 22.2599 21.4892 22.2454 21.2381C22.2308 20.9869 22.2236 20.7542 22.2236 20.54V10.8H24.8055Z" fill="#4592FF"/>
<path d="M41.8113 10.8L35.4491 26.8228H32.8019L26.4397 10.8H28.7929C29.0471 10.8 29.254 10.8628 29.4138 10.9884C29.5736 11.114 29.6934 11.2765 29.7733 11.476L33.4882 21.2492C33.6117 21.5668 33.7279 21.9177 33.8368 22.3018C33.953 22.6786 34.062 23.0738 34.1636 23.4875C34.2508 23.0738 34.3452 22.6786 34.4469 22.3018C34.5486 21.9177 34.6611 21.5668 34.7846 21.2492L38.4777 11.476C38.5358 11.3061 38.6484 11.1509 38.8154 11.0106C38.9897 10.8702 39.2003 10.8 39.4473 10.8H41.8113Z" fill="#4592FF"/>
</g>
</svg>
